
<svg xmlns="http://www.w3.org/2000/svg" version="1.1" xmlns:xlink="http://www.w3.org/1999/xlink" preserveAspectRatio="none" x="0px" y="0px" width="210px" height="630px" viewBox="0 0 210 630">
<defs>
<g id="Layer2_0_MEMBER_0_MEMBER_0_MEMBER_0_FILL">
<path fill="#FF0000" fill-opacity="0" stroke="none" d="
M 70 140
L 0 140 0 210 70 210 70 140 Z"/>
</g>

<g id="Layer2_1_MEMBER_0_MEMBER_0_MEMBER_0_FILL">
<path fill="#FF0000" fill-opacity="0" stroke="none" d="
M 210 140
L 210 70 140 70 140 140 210 140 Z"/>
</g>

<g id="Layer2_2_MEMBER_0_MEMBER_0_MEMBER_0_FILL">
<path fill="#FF0000" fill-opacity="0" stroke="none" d="
M 70 140
L 140 140 140 70 70 70 70 140 Z"/>
</g>

<g id="Layer2_3_MEMBER_0_MEMBER_0_MEMBER_0_FILL">
<path fill="#FF0000" fill-opacity="0" stroke="none" d="
M 70 70
L 0 70 0 140 70 140 70 70 Z"/>
</g>

<g id="Layer2_4_MEMBER_0_MEMBER_0_MEMBER_0_FILL">
<path fill="#FF0000" fill-opacity="0" stroke="none" d="
M 140 210
L 210 210 210 140 140 140 140 210 Z"/>
</g>

<g id="Layer2_5_MEMBER_0_MEMBER_0_MEMBER_0_FILL">
<path fill="#FF0000" fill-opacity="0" stroke="none" d="
M 140 140
L 70 140 70 210 140 210 140 140 Z"/>
</g>

<g id="Layer2_6_MEMBER_0_MEMBER_0_MEMBER_0_FILL">
<path fill="#FF0000" fill-opacity="0" stroke="none" d="
M 70 280
L 70 210 0 210 0 280 70 280 Z"/>
</g>

<g id="Layer2_7_MEMBER_0_MEMBER_0_MEMBER_0_FILL">
<path fill="#FF0000" fill-opacity="0" stroke="none" d="
M 70 0
L 0 0 0 70 70 70 70 0 Z"/>
</g>

<g id="Layer2_8_MEMBER_0_MEMBER_0_MEMBER_0_FILL">
<path fill="#FFFFFF" stroke="none" d="
M 44.4 26.65
L 44.4 23.9
Q 44.4 20.6 41.7 17.75 38.8 14.9 34.9 14.75 31.15 14.75 28.1 17.65 25.35 20.55 25.35 23.9
L 25.35 26.65 28.85 26.65 28.85 24
Q 28.85 21.95 30.5 20.3 32.15 18.4 34.9 18.4 37.45 18.4 39.25 20.3 40.9 22.1 40.9 24
L 40.9 26.65 44.4 26.65
M 49.5 31.65
Q 49.5 30.8 48.75 29.9 48 29.25 47.2 29.25
L 22.75 29.25
Q 21.9 29.25 21.1 29.9 20.5 30.5 20.5 31.5
L 20.5 48.8
Q 20.5 50.05 21.1 50.5 21.85 51.1 22.75 51.1
L 47.2 51.1
Q 48.15 51.1 48.75 50.5 49.5 49.9 49.5 48.8
L 49.5 31.65 Z"/>
</g>

<g id="Layer2_9_MEMBER_0_MEMBER_0_MEMBER_0_FILL">
<path fill="#663399" fill-opacity="0" stroke="none" d="
M 140 280
L 140 210 70 210 70 280 140 280 Z"/>
</g>

<g id="Layer0_0_FILL">
<path fill="#FFFFFF" stroke="none" d="
M 44.6 237.15
L 44.6 234.85 39.1 236.65 39.1 239.1 44.6 237.15
M 59.25 227.7
Q 60.05 225.65 58.15 224.4
L 37.35 232.15
Q 38.194140625 233.585546875 38.6 235.6
L 59.25 227.7
M 51.55 257.6
L 56.25 249 40 249.05 51.55 257.6
M 37.65 251.5
L 40.1 260.5 43.65 259.55 37.65 251.5
M 25.4 264.95
Q 25.8 264.75 25.4 264.1 19.25 259.25 19.2 252.35 16.5 249.6 13.3 248.65 13.75 252.4 13 255.85 13 262.4 15.95 268.3 19.9 267.75 25.4 264.95
M 18.7 238.3
Q 19.25 242.9 14.7 247.1 18.4 248.6 20.85 251.2 21.35 250.75 22.15 251.2 24.3 253.3 26.4 254.15 29.65 255.25 32.3 251.75 34 249.8 33.65 245 33.35 244.3 34.3 243.8
L 36.95 242.9
Q 37.7 235.05 34.7 232.25
L 18.7 238.3
M 24.65 245
L 22.4 238.9 31.85 235.3 34.1 241.75 24.65 245
M 26.7 252.5
Q 24.4 251.6 24.9 249.4 25.7 247.8 28.55 246.7 32.95 245 31.6 249.6 30.05 253.75 26.7 252.5
M 29.55 250.7
Q 27.95 249.05 28.5 248.35 27.25 248.75 26.6 250.05 28.2 251.1 29.55 250.7
M 26.35 238.85
Q 24.85 240.05 27.05 239.85
L 30.75 238.7 30.2 237.6 26.35 238.85
M 27.35 241.3
Q 26.05 242.5 27.85 242.5
L 31.7 241.25 31.15 240 27.35 241.3
M 16.85 239.35
Q 14.85 239.3 13.3 240.7 11.25 242.8 12.75 242.7 14.1 241.5 16.05 242.25 17.15 240.75 16.85 239.35 Z"/>
</g>
</defs>

<g transform="matrix( 1, 0, 0, 1, 0,0) ">
<use xlink:href="#Layer2_0_MEMBER_0_MEMBER_0_MEMBER_0_FILL"/>
</g>

<g transform="matrix( 1, 0, 0, 1, 0,0) ">
<use xlink:href="#Layer2_1_MEMBER_0_MEMBER_0_MEMBER_0_FILL"/>
</g>

<g transform="matrix( 1, 0, 0, 1, 0,0) ">
<use xlink:href="#Layer2_2_MEMBER_0_MEMBER_0_MEMBER_0_FILL"/>
</g>

<g transform="matrix( 1, 0, 0, 1, 0,0) ">
<use xlink:href="#Layer2_3_MEMBER_0_MEMBER_0_MEMBER_0_FILL"/>
</g>

<g transform="matrix( 1, 0, 0, 1, 0,0) ">
<use xlink:href="#Layer2_4_MEMBER_0_MEMBER_0_MEMBER_0_FILL"/>
</g>

<g transform="matrix( 1, 0, 0, 1, 0,0) ">
<use xlink:href="#Layer2_5_MEMBER_0_MEMBER_0_MEMBER_0_FILL"/>
</g>

<g transform="matrix( 1, 0, 0, 1, 0,0) ">
<use xlink:href="#Layer2_6_MEMBER_0_MEMBER_0_MEMBER_0_FILL"/>
</g>

<g transform="matrix( 1, 0, 0, 1, 0,0) ">
<use xlink:href="#Layer2_7_MEMBER_0_MEMBER_0_MEMBER_0_FILL"/>
</g>

<g transform="matrix( 1, 0, 0, 1, 0,0) ">
<use xlink:href="#Layer2_8_MEMBER_0_MEMBER_0_MEMBER_0_FILL"/>
</g>

<g transform="matrix( 1, 0, 0, 1, 0,0) ">
<use xlink:href="#Layer2_9_MEMBER_0_MEMBER_0_MEMBER_0_FILL"/>
</g>

<g transform="matrix( 1, 0, 0, 1, 0,0) ">
<use xlink:href="#Layer0_0_FILL"/>
</g>
</svg>
